<mxfile host="app.diagrams.net" modified="2022-12-09T14:07:53.220Z" agent="5.0 (Windows NT 10.0; Win64; x64) AppleWebKit/537.36 (KHTML, like Gecko) Chrome/106.0.0.0 Safari/537.36 OPR/92.0.0.0" version="20.6.2" etag="MsQeAK4a4YGy9pEEB86V" type="github">
  <diagram id="KjgXaKl2gIKfC-z2WveC" name="Rutekort">
    <mxGraphModel dx="5110" dy="2150" grid="1" gridSize="10" guides="1" tooltips="1" connect="1" arrows="1" fold="1" page="1" pageScale="1" pageWidth="10000" pageHeight="10000" math="0" shadow="0">
      <root>
        <mxCell id="0" />
        <mxCell id="1" parent="0" />
        <mxCell id="hqqRMv9_qPCl2O-zhf3N-1" value="" style="edgeStyle=none;shape=link;rounded=0;orthogonalLoop=1;jettySize=auto;html=1;arcSize=10;fillOpacity=50;" edge="1" parent="1" source="hqqRMv9_qPCl2O-zhf3N-2" target="hqqRMv9_qPCl2O-zhf3N-4">
          <mxGeometry relative="1" as="geometry" />
        </mxCell>
        <mxCell id="hqqRMv9_qPCl2O-zhf3N-2" value="&lt;font style=&quot;font-size: 40px;&quot;&gt;Paris Est&lt;/font&gt;" style="rounded=0;whiteSpace=wrap;html=1;fontStyle=1;fontSize=40;fillColor=#d5e8d4;strokeColor=#82b366;arcSize=10;fillOpacity=50;" vertex="1" parent="1">
          <mxGeometry x="3670" y="4070" width="140" height="100" as="geometry" />
        </mxCell>
        <mxCell id="hqqRMv9_qPCl2O-zhf3N-3" value="" style="edgeStyle=none;shape=link;rounded=0;orthogonalLoop=1;jettySize=auto;html=1;arcSize=10;fillOpacity=50;" edge="1" parent="1" source="hqqRMv9_qPCl2O-zhf3N-4" target="hqqRMv9_qPCl2O-zhf3N-6">
          <mxGeometry relative="1" as="geometry" />
        </mxCell>
        <mxCell id="hqqRMv9_qPCl2O-zhf3N-4" value="Vaires-Torcy" style="rounded=0;whiteSpace=wrap;html=1;fontSize=32;arcSize=10;fillOpacity=50;" vertex="1" parent="1">
          <mxGeometry x="3910" y="4060" width="130" height="80" as="geometry" />
        </mxCell>
        <mxCell id="hqqRMv9_qPCl2O-zhf3N-5" value="" style="edgeStyle=none;shape=link;rounded=0;orthogonalLoop=1;jettySize=auto;html=1;arcSize=10;fillOpacity=50;" edge="1" parent="1" source="hqqRMv9_qPCl2O-zhf3N-6" target="hqqRMv9_qPCl2O-zhf3N-9">
          <mxGeometry relative="1" as="geometry" />
        </mxCell>
        <mxCell id="hqqRMv9_qPCl2O-zhf3N-6" value="Strasbourg-Kehl" style="rounded=0;whiteSpace=wrap;html=1;fontSize=32;arcSize=10;fillOpacity=50;" vertex="1" parent="1">
          <mxGeometry x="4060" y="4200" width="180" height="90" as="geometry" />
        </mxCell>
        <mxCell id="hqqRMv9_qPCl2O-zhf3N-7" value="" style="edgeStyle=none;shape=link;rounded=0;orthogonalLoop=1;jettySize=auto;html=1;arcSize=10;fillOpacity=50;" edge="1" parent="1" source="hqqRMv9_qPCl2O-zhf3N-9" target="hqqRMv9_qPCl2O-zhf3N-11">
          <mxGeometry relative="1" as="geometry" />
        </mxCell>
        <mxCell id="hqqRMv9_qPCl2O-zhf3N-8" value="" style="edgeStyle=none;shape=link;rounded=0;orthogonalLoop=1;jettySize=auto;html=1;arcSize=10;fillOpacity=50;" edge="1" parent="1" source="hqqRMv9_qPCl2O-zhf3N-9" target="hqqRMv9_qPCl2O-zhf3N-40">
          <mxGeometry relative="1" as="geometry" />
        </mxCell>
        <mxCell id="hqqRMv9_qPCl2O-zhf3N-9" value="Karlsruhe" style="rounded=0;whiteSpace=wrap;html=1;fontSize=32;arcSize=10;fillOpacity=50;" vertex="1" parent="1">
          <mxGeometry x="4290" y="4170" width="160" height="70" as="geometry" />
        </mxCell>
        <mxCell id="hqqRMv9_qPCl2O-zhf3N-10" value="" style="edgeStyle=none;shape=link;rounded=0;orthogonalLoop=1;jettySize=auto;html=1;arcSize=10;fillOpacity=50;" edge="1" parent="1" source="hqqRMv9_qPCl2O-zhf3N-11" target="hqqRMv9_qPCl2O-zhf3N-13">
          <mxGeometry relative="1" as="geometry" />
        </mxCell>
        <mxCell id="hqqRMv9_qPCl2O-zhf3N-11" value="Mannheim Hbf" style="rounded=0;whiteSpace=wrap;html=1;fontSize=32;arcSize=10;fillOpacity=50;" vertex="1" parent="1">
          <mxGeometry x="4300" y="3980" width="180" height="90" as="geometry" />
        </mxCell>
        <mxCell id="hqqRMv9_qPCl2O-zhf3N-12" value="" style="edgeStyle=none;shape=link;rounded=0;orthogonalLoop=1;jettySize=auto;html=1;arcSize=10;fillOpacity=50;" edge="1" parent="1" source="hqqRMv9_qPCl2O-zhf3N-13" target="hqqRMv9_qPCl2O-zhf3N-15">
          <mxGeometry relative="1" as="geometry" />
        </mxCell>
        <mxCell id="hqqRMv9_qPCl2O-zhf3N-13" value="Frankfurt Hbf" style="rounded=0;whiteSpace=wrap;html=1;fontSize=32;fontStyle=1;arcSize=10;fillOpacity=50;" vertex="1" parent="1">
          <mxGeometry x="4410" y="3795" width="160" height="100" as="geometry" />
        </mxCell>
        <mxCell id="hqqRMv9_qPCl2O-zhf3N-14" value="" style="edgeStyle=none;shape=link;rounded=0;orthogonalLoop=1;jettySize=auto;html=1;arcSize=10;fillOpacity=50;" edge="1" parent="1" source="hqqRMv9_qPCl2O-zhf3N-15" target="hqqRMv9_qPCl2O-zhf3N-18">
          <mxGeometry relative="1" as="geometry" />
        </mxCell>
        <mxCell id="hqqRMv9_qPCl2O-zhf3N-15" value="Fulda" style="whiteSpace=wrap;html=1;rounded=0;fontSize=32;arcSize=10;fillOpacity=50;" vertex="1" parent="1">
          <mxGeometry x="4680" y="3740" width="160" height="90" as="geometry" />
        </mxCell>
        <mxCell id="hqqRMv9_qPCl2O-zhf3N-16" value="" style="edgeStyle=none;shape=link;rounded=0;orthogonalLoop=1;jettySize=auto;html=1;arcSize=10;fillOpacity=50;" edge="1" parent="1" source="hqqRMv9_qPCl2O-zhf3N-18" target="hqqRMv9_qPCl2O-zhf3N-20">
          <mxGeometry relative="1" as="geometry" />
        </mxCell>
        <mxCell id="hqqRMv9_qPCl2O-zhf3N-17" value="" style="edgeStyle=none;shape=link;rounded=0;orthogonalLoop=1;jettySize=auto;html=1;arcSize=10;fillOpacity=50;" edge="1" parent="1" source="hqqRMv9_qPCl2O-zhf3N-18" target="hqqRMv9_qPCl2O-zhf3N-26">
          <mxGeometry relative="1" as="geometry" />
        </mxCell>
        <mxCell id="hqqRMv9_qPCl2O-zhf3N-18" value="Wolfsburg Hbf" style="whiteSpace=wrap;html=1;rounded=0;fontSize=32;arcSize=10;fillOpacity=50;" vertex="1" parent="1">
          <mxGeometry x="4630" y="3420" width="150" height="90" as="geometry" />
        </mxCell>
        <mxCell id="hqqRMv9_qPCl2O-zhf3N-19" value="" style="edgeStyle=none;shape=link;rounded=0;orthogonalLoop=1;jettySize=auto;html=1;arcSize=10;fillOpacity=50;" edge="1" parent="1" source="hqqRMv9_qPCl2O-zhf3N-20" target="hqqRMv9_qPCl2O-zhf3N-22">
          <mxGeometry relative="1" as="geometry" />
        </mxCell>
        <mxCell id="hqqRMv9_qPCl2O-zhf3N-20" value="Berlin Hbf" style="whiteSpace=wrap;html=1;rounded=0;fontSize=40;fontStyle=1;fillColor=#fff2cc;strokeColor=#d6b656;arcSize=10;fillOpacity=50;" vertex="1" parent="1">
          <mxGeometry x="5020" y="3410" width="160" height="90" as="geometry" />
        </mxCell>
        <mxCell id="hqqRMv9_qPCl2O-zhf3N-21" value="" style="edgeStyle=none;shape=link;rounded=0;orthogonalLoop=1;jettySize=auto;html=1;arcSize=10;fillOpacity=50;" edge="1" parent="1" source="hqqRMv9_qPCl2O-zhf3N-22" target="hqqRMv9_qPCl2O-zhf3N-23">
          <mxGeometry relative="1" as="geometry" />
        </mxCell>
        <mxCell id="hqqRMv9_qPCl2O-zhf3N-22" value="Dresden Hbf" style="whiteSpace=wrap;html=1;rounded=0;fontSize=32;arcSize=10;fillOpacity=50;" vertex="1" parent="1">
          <mxGeometry x="5090" y="3760" width="170" height="110" as="geometry" />
        </mxCell>
        <mxCell id="hqqRMv9_qPCl2O-zhf3N-23" value="Prague hl" style="whiteSpace=wrap;html=1;rounded=0;fontSize=40;fontStyle=1;fillColor=#f8cecc;strokeColor=#b85450;arcSize=10;fillOpacity=50;" vertex="1" parent="1">
          <mxGeometry x="5300" y="3980" width="180" height="90" as="geometry" />
        </mxCell>
        <mxCell id="hqqRMv9_qPCl2O-zhf3N-24" value="" style="edgeStyle=none;shape=link;rounded=0;orthogonalLoop=1;jettySize=auto;html=1;arcSize=10;fillOpacity=50;" edge="1" parent="1" source="hqqRMv9_qPCl2O-zhf3N-26" target="hqqRMv9_qPCl2O-zhf3N-28">
          <mxGeometry relative="1" as="geometry" />
        </mxCell>
        <mxCell id="hqqRMv9_qPCl2O-zhf3N-25" value="" style="edgeStyle=none;shape=link;rounded=0;orthogonalLoop=1;jettySize=auto;html=1;arcSize=10;fillOpacity=50;" edge="1" parent="1" source="hqqRMv9_qPCl2O-zhf3N-26" target="hqqRMv9_qPCl2O-zhf3N-33">
          <mxGeometry relative="1" as="geometry" />
        </mxCell>
        <mxCell id="hqqRMv9_qPCl2O-zhf3N-26" value="Buckeburg" style="whiteSpace=wrap;html=1;rounded=0;fontSize=32;arcSize=10;fillOpacity=50;" vertex="1" parent="1">
          <mxGeometry x="4300" y="3420" width="180" height="90" as="geometry" />
        </mxCell>
        <mxCell id="hqqRMv9_qPCl2O-zhf3N-27" value="" style="edgeStyle=none;shape=link;rounded=0;orthogonalLoop=1;jettySize=auto;html=1;arcSize=10;fillOpacity=50;" edge="1" parent="1" source="hqqRMv9_qPCl2O-zhf3N-28" target="hqqRMv9_qPCl2O-zhf3N-30">
          <mxGeometry relative="1" as="geometry" />
        </mxCell>
        <mxCell id="hqqRMv9_qPCl2O-zhf3N-28" value="Cologne Hbf" style="whiteSpace=wrap;html=1;rounded=0;fontSize=32;arcSize=10;fillOpacity=50;" vertex="1" parent="1">
          <mxGeometry x="4090" y="3720" width="160" height="90" as="geometry" />
        </mxCell>
        <mxCell id="hqqRMv9_qPCl2O-zhf3N-29" value="" style="edgeStyle=none;shape=link;rounded=0;orthogonalLoop=1;jettySize=auto;html=1;arcSize=10;fillOpacity=50;" edge="1" parent="1" source="hqqRMv9_qPCl2O-zhf3N-30" target="hqqRMv9_qPCl2O-zhf3N-31">
          <mxGeometry relative="1" as="geometry" />
        </mxCell>
        <mxCell id="hqqRMv9_qPCl2O-zhf3N-30" value="Bruxelles-Midi" style="whiteSpace=wrap;html=1;rounded=0;fontSize=40;fontStyle=1;fillColor=#ffe6cc;strokeColor=#d79b00;arcSize=10;fillOpacity=50;" vertex="1" parent="1">
          <mxGeometry x="3720" y="3660" width="210" height="130" as="geometry" />
        </mxCell>
        <mxCell id="hqqRMv9_qPCl2O-zhf3N-31" value="Paris Nord" style="whiteSpace=wrap;html=1;rounded=0;fontSize=40;fontStyle=1;fillColor=#d5e8d4;strokeColor=#82b366;arcSize=10;fillOpacity=50;" vertex="1" parent="1">
          <mxGeometry x="3460" y="4040" width="180" height="100" as="geometry" />
        </mxCell>
        <mxCell id="hqqRMv9_qPCl2O-zhf3N-32" value="" style="edgeStyle=none;shape=link;rounded=0;orthogonalLoop=1;jettySize=auto;html=1;entryX=0.5;entryY=0;entryDx=0;entryDy=0;arcSize=10;fillOpacity=50;" edge="1" parent="1" source="hqqRMv9_qPCl2O-zhf3N-33" target="hqqRMv9_qPCl2O-zhf3N-30">
          <mxGeometry relative="1" as="geometry">
            <mxPoint x="3210" y="3260" as="targetPoint" />
          </mxGeometry>
        </mxCell>
        <mxCell id="hqqRMv9_qPCl2O-zhf3N-33" value="Amsterdam Centraal" style="whiteSpace=wrap;html=1;rounded=0;fontSize=40;fontStyle=1;fillColor=#dae8fc;strokeColor=#6c8ebf;arcSize=10;fillOpacity=50;" vertex="1" parent="1">
          <mxGeometry x="3640" y="3395" width="240" height="120" as="geometry" />
        </mxCell>
        <mxCell id="hqqRMv9_qPCl2O-zhf3N-34" value="" style="edgeStyle=none;orthogonalLoop=1;jettySize=auto;html=1;rounded=0;shape=link;exitX=1;exitY=1;exitDx=0;exitDy=0;entryX=0;entryY=0;entryDx=0;entryDy=0;arcSize=10;fillOpacity=50;" edge="1" parent="1" source="hqqRMv9_qPCl2O-zhf3N-33" target="hqqRMv9_qPCl2O-zhf3N-28">
          <mxGeometry width="80" relative="1" as="geometry">
            <mxPoint x="3650" y="3370" as="sourcePoint" />
            <mxPoint x="3730" y="3370" as="targetPoint" />
            <Array as="points" />
          </mxGeometry>
        </mxCell>
        <mxCell id="hqqRMv9_qPCl2O-zhf3N-35" value="" style="edgeStyle=none;orthogonalLoop=1;jettySize=auto;html=1;rounded=0;shape=link;exitX=1;exitY=0.5;exitDx=0;exitDy=0;entryX=0;entryY=0.5;entryDx=0;entryDy=0;arcSize=10;fillOpacity=50;" edge="1" parent="1" source="hqqRMv9_qPCl2O-zhf3N-28" target="hqqRMv9_qPCl2O-zhf3N-13">
          <mxGeometry width="80" relative="1" as="geometry">
            <mxPoint x="4040" y="3550" as="sourcePoint" />
            <mxPoint x="4120" y="3550" as="targetPoint" />
            <Array as="points" />
          </mxGeometry>
        </mxCell>
        <mxCell id="hqqRMv9_qPCl2O-zhf3N-36" value="" style="edgeStyle=none;orthogonalLoop=1;jettySize=auto;html=1;rounded=0;shape=link;entryX=0;entryY=0.5;entryDx=0;entryDy=0;exitX=1;exitY=0.5;exitDx=0;exitDy=0;arcSize=10;fillOpacity=50;" edge="1" parent="1" source="hqqRMv9_qPCl2O-zhf3N-4" target="hqqRMv9_qPCl2O-zhf3N-11">
          <mxGeometry width="80" relative="1" as="geometry">
            <mxPoint x="3560" y="3710" as="sourcePoint" />
            <mxPoint x="3640" y="3710" as="targetPoint" />
            <Array as="points" />
          </mxGeometry>
        </mxCell>
        <mxCell id="hqqRMv9_qPCl2O-zhf3N-37" value="" style="edgeStyle=none;shape=link;rounded=0;orthogonalLoop=1;jettySize=auto;html=1;arcSize=10;fillOpacity=50;" edge="1" parent="1" source="hqqRMv9_qPCl2O-zhf3N-40" target="hqqRMv9_qPCl2O-zhf3N-116">
          <mxGeometry relative="1" as="geometry">
            <mxPoint x="4390" y="4770" as="targetPoint" />
          </mxGeometry>
        </mxCell>
        <mxCell id="hqqRMv9_qPCl2O-zhf3N-38" value="" style="edgeStyle=none;shape=link;rounded=0;orthogonalLoop=1;jettySize=auto;html=1;arcSize=10;fillOpacity=50;" edge="1" parent="1" source="hqqRMv9_qPCl2O-zhf3N-40" target="hqqRMv9_qPCl2O-zhf3N-46">
          <mxGeometry relative="1" as="geometry" />
        </mxCell>
        <mxCell id="hqqRMv9_qPCl2O-zhf3N-39" value="" style="edgeStyle=none;shape=link;rounded=0;orthogonalLoop=1;jettySize=auto;html=1;arcSize=10;fillOpacity=50;" edge="1" parent="1" source="hqqRMv9_qPCl2O-zhf3N-40" target="hqqRMv9_qPCl2O-zhf3N-48">
          <mxGeometry relative="1" as="geometry" />
        </mxCell>
        <mxCell id="hqqRMv9_qPCl2O-zhf3N-40" value="Basel SBB" style="whiteSpace=wrap;html=1;rounded=0;fontSize=32;arcSize=10;fillOpacity=50;" vertex="1" parent="1">
          <mxGeometry x="4230" y="4520" width="160" height="70" as="geometry" />
        </mxCell>
        <mxCell id="hqqRMv9_qPCl2O-zhf3N-41" value="" style="edgeStyle=none;shape=link;rounded=0;orthogonalLoop=1;jettySize=auto;html=1;arcSize=10;fillOpacity=50;" edge="1" parent="1" source="hqqRMv9_qPCl2O-zhf3N-42" target="hqqRMv9_qPCl2O-zhf3N-44">
          <mxGeometry relative="1" as="geometry" />
        </mxCell>
        <mxCell id="hqqRMv9_qPCl2O-zhf3N-42" value="Milano Centrale" style="whiteSpace=wrap;html=1;rounded=0;fontSize=40;fontStyle=1;fillColor=#f8cecc;gradientColor=#ea6b66;strokeColor=#b85450;arcSize=10;fillOpacity=50;" vertex="1" parent="1">
          <mxGeometry x="4340" y="4880" width="220" height="120" as="geometry" />
        </mxCell>
        <mxCell id="hqqRMv9_qPCl2O-zhf3N-43" value="" style="edgeStyle=none;shape=link;rounded=0;orthogonalLoop=1;jettySize=auto;html=1;arcSize=10;fillOpacity=50;" edge="1" parent="1" source="hqqRMv9_qPCl2O-zhf3N-44" target="hqqRMv9_qPCl2O-zhf3N-45">
          <mxGeometry relative="1" as="geometry" />
        </mxCell>
        <mxCell id="hqqRMv9_qPCl2O-zhf3N-44" value="Firenze Castello" style="whiteSpace=wrap;html=1;rounded=0;fontSize=40;fontStyle=1;fillColor=#fff2cc;gradientColor=#ffd966;strokeColor=#d6b656;arcSize=10;fillOpacity=50;" vertex="1" parent="1">
          <mxGeometry x="4410" y="5070" width="210" height="110" as="geometry" />
        </mxCell>
        <mxCell id="hqqRMv9_qPCl2O-zhf3N-45" value="Rome Termini" style="whiteSpace=wrap;html=1;rounded=0;fontSize=40;fontStyle=1;fillColor=#e6d0de;strokeColor=#996185;gradientColor=#d5739d;arcSize=10;fillOpacity=50;" vertex="1" parent="1">
          <mxGeometry x="4420" y="5310" width="240" height="100" as="geometry" />
        </mxCell>
        <mxCell id="hqqRMv9_qPCl2O-zhf3N-46" value="Bern" style="whiteSpace=wrap;html=1;rounded=0;fontSize=40;fontStyle=1;fillColor=#e1d5e7;strokeColor=#9673a6;arcSize=10;fillOpacity=50;" vertex="1" parent="1">
          <mxGeometry x="4190" y="4650" width="120" height="60" as="geometry" />
        </mxCell>
        <mxCell id="hqqRMv9_qPCl2O-zhf3N-47" value="" style="edgeStyle=none;shape=link;rounded=0;orthogonalLoop=1;jettySize=auto;html=1;arcSize=10;fillOpacity=50;" edge="1" parent="1" source="hqqRMv9_qPCl2O-zhf3N-48" target="hqqRMv9_qPCl2O-zhf3N-51">
          <mxGeometry relative="1" as="geometry" />
        </mxCell>
        <mxCell id="hqqRMv9_qPCl2O-zhf3N-48" value="Mulhouse Ville" style="whiteSpace=wrap;html=1;rounded=0;fontSize=32;arcSize=10;fillOpacity=50;" vertex="1" parent="1">
          <mxGeometry x="4000" y="4420" width="170" height="80" as="geometry" />
        </mxCell>
        <mxCell id="hqqRMv9_qPCl2O-zhf3N-49" value="" style="edgeStyle=none;orthogonalLoop=1;jettySize=auto;html=1;rounded=0;shape=link;exitX=0.5;exitY=0;exitDx=0;exitDy=0;entryX=0.5;entryY=1;entryDx=0;entryDy=0;width=10;arcSize=10;fillOpacity=50;" edge="1" parent="1" source="hqqRMv9_qPCl2O-zhf3N-48" target="hqqRMv9_qPCl2O-zhf3N-6">
          <mxGeometry width="80" relative="1" as="geometry">
            <mxPoint x="3370" y="4320" as="sourcePoint" />
            <mxPoint x="3450" y="4320" as="targetPoint" />
            <Array as="points" />
          </mxGeometry>
        </mxCell>
        <mxCell id="hqqRMv9_qPCl2O-zhf3N-50" value="" style="edgeStyle=none;shape=link;rounded=0;orthogonalLoop=1;jettySize=auto;html=1;arcSize=10;fillOpacity=50;" edge="1" parent="1" source="hqqRMv9_qPCl2O-zhf3N-51" target="hqqRMv9_qPCl2O-zhf3N-53">
          <mxGeometry relative="1" as="geometry" />
        </mxCell>
        <mxCell id="hqqRMv9_qPCl2O-zhf3N-51" value="Nimes Centre" style="whiteSpace=wrap;html=1;rounded=0;fontSize=32;arcSize=10;fillOpacity=50;" vertex="1" parent="1">
          <mxGeometry x="3900" y="4740" width="160" height="90" as="geometry" />
        </mxCell>
        <mxCell id="hqqRMv9_qPCl2O-zhf3N-52" value="" style="edgeStyle=none;shape=link;rounded=0;orthogonalLoop=1;jettySize=auto;html=1;arcSize=10;fillOpacity=50;" edge="1" parent="1" source="hqqRMv9_qPCl2O-zhf3N-53" target="hqqRMv9_qPCl2O-zhf3N-54">
          <mxGeometry relative="1" as="geometry" />
        </mxCell>
        <mxCell id="hqqRMv9_qPCl2O-zhf3N-53" value="Barcelona-sants" style="whiteSpace=wrap;html=1;rounded=0;fontSize=40;fontStyle=1;fillColor=#b0e3e6;strokeColor=#0e8088;arcSize=10;fillOpacity=50;" vertex="1" parent="1">
          <mxGeometry x="3680" y="4940" width="230" height="120" as="geometry" />
        </mxCell>
        <mxCell id="hqqRMv9_qPCl2O-zhf3N-54" value="Madrid Puerta" style="whiteSpace=wrap;html=1;rounded=0;fontSize=40;fontStyle=1;fillColor=#fad7ac;strokeColor=#b46504;arcSize=10;fillOpacity=50;" vertex="1" parent="1">
          <mxGeometry x="3320" y="5070" width="180" height="100" as="geometry" />
        </mxCell>
        <mxCell id="hqqRMv9_qPCl2O-zhf3N-55" value="" style="edgeStyle=none;orthogonalLoop=1;jettySize=auto;html=1;rounded=0;shape=link;entryX=0;entryY=0;entryDx=0;entryDy=0;exitX=0.5;exitY=1;exitDx=0;exitDy=0;arcSize=10;fillOpacity=50;" edge="1" parent="1" source="hqqRMv9_qPCl2O-zhf3N-31" target="hqqRMv9_qPCl2O-zhf3N-51">
          <mxGeometry width="80" relative="1" as="geometry">
            <mxPoint x="3320" y="4810" as="sourcePoint" />
            <mxPoint x="3400" y="4810" as="targetPoint" />
            <Array as="points" />
          </mxGeometry>
        </mxCell>
        <mxCell id="hqqRMv9_qPCl2O-zhf3N-56" style="edgeStyle=none;shape=link;rounded=0;orthogonalLoop=1;jettySize=auto;html=1;exitX=0.5;exitY=1;exitDx=0;exitDy=0;fontSize=32;arcSize=10;fillOpacity=50;" edge="1" parent="1" source="hqqRMv9_qPCl2O-zhf3N-40" target="hqqRMv9_qPCl2O-zhf3N-40">
          <mxGeometry relative="1" as="geometry" />
        </mxCell>
        <mxCell id="hqqRMv9_qPCl2O-zhf3N-57" style="edgeStyle=none;shape=link;rounded=0;orthogonalLoop=1;jettySize=auto;html=1;exitX=0.5;exitY=0;exitDx=0;exitDy=0;fontSize=32;arcSize=10;fillOpacity=50;" edge="1" parent="1" source="hqqRMv9_qPCl2O-zhf3N-4" target="hqqRMv9_qPCl2O-zhf3N-4">
          <mxGeometry relative="1" as="geometry" />
        </mxCell>
        <mxCell id="hqqRMv9_qPCl2O-zhf3N-58" style="edgeStyle=none;shape=link;rounded=0;orthogonalLoop=1;jettySize=auto;html=1;exitX=0.5;exitY=0;exitDx=0;exitDy=0;fontSize=32;arcSize=10;fillOpacity=50;" edge="1" parent="1" source="hqqRMv9_qPCl2O-zhf3N-4" target="hqqRMv9_qPCl2O-zhf3N-4">
          <mxGeometry relative="1" as="geometry" />
        </mxCell>
        <mxCell id="hqqRMv9_qPCl2O-zhf3N-59" style="edgeStyle=none;shape=link;rounded=0;orthogonalLoop=1;jettySize=auto;html=1;exitX=0.5;exitY=1;exitDx=0;exitDy=0;fontSize=32;arcSize=10;fillOpacity=50;" edge="1" parent="1" source="hqqRMv9_qPCl2O-zhf3N-48" target="hqqRMv9_qPCl2O-zhf3N-48">
          <mxGeometry relative="1" as="geometry" />
        </mxCell>
        <mxCell id="hqqRMv9_qPCl2O-zhf3N-60" value="" style="edgeStyle=none;orthogonalLoop=1;jettySize=auto;html=1;rounded=0;fontSize=40;shape=link;exitX=1;exitY=0.5;exitDx=0;exitDy=0;width=-4;entryX=0;entryY=0.5;entryDx=0;entryDy=0;arcSize=10;fillOpacity=50;" edge="1" parent="1" source="hqqRMv9_qPCl2O-zhf3N-31" target="hqqRMv9_qPCl2O-zhf3N-2">
          <mxGeometry width="80" relative="1" as="geometry">
            <mxPoint x="3550" y="3930" as="sourcePoint" />
            <mxPoint x="3630" y="3930" as="targetPoint" />
            <Array as="points" />
          </mxGeometry>
        </mxCell>
        <mxCell id="hqqRMv9_qPCl2O-zhf3N-61" value="" style="shape=link;html=1;rounded=0;fontSize=40;fillColor=#e51400;strokeColor=#000000;labelBackgroundColor=default;labelBorderColor=none;strokeWidth=5;arcSize=10;fillOpacity=50;" edge="1" parent="1">
          <mxGeometry width="100" relative="1" as="geometry">
            <mxPoint x="4480" y="4660" as="sourcePoint" />
            <mxPoint x="5060" y="4610" as="targetPoint" />
          </mxGeometry>
        </mxCell>
        <mxCell id="hqqRMv9_qPCl2O-zhf3N-62" value="" style="shape=link;html=1;rounded=0;fontSize=40;strokeWidth=5;arcSize=10;fillOpacity=50;" edge="1" parent="1">
          <mxGeometry width="100" relative="1" as="geometry">
            <mxPoint x="4170" y="4580" as="sourcePoint" />
            <mxPoint x="4470" y="4660" as="targetPoint" />
          </mxGeometry>
        </mxCell>
        <mxCell id="hqqRMv9_qPCl2O-zhf3N-63" value="" style="shape=link;html=1;rounded=0;fontSize=40;strokeWidth=5;arcSize=10;fillOpacity=50;" edge="1" parent="1">
          <mxGeometry width="100" relative="1" as="geometry">
            <mxPoint x="4180" y="4580" as="sourcePoint" />
            <mxPoint x="4290" y="4110" as="targetPoint" />
          </mxGeometry>
        </mxCell>
        <mxCell id="hqqRMv9_qPCl2O-zhf3N-64" value="" style="shape=link;html=1;rounded=0;fontSize=40;strokeColor=#000000;strokeWidth=5;arcSize=10;fillOpacity=50;" edge="1" parent="1">
          <mxGeometry width="100" relative="1" as="geometry">
            <mxPoint x="4290" y="4120" as="sourcePoint" />
            <mxPoint x="4040" y="3780" as="targetPoint" />
          </mxGeometry>
        </mxCell>
        <mxCell id="hqqRMv9_qPCl2O-zhf3N-65" value="" style="shape=link;html=1;rounded=0;labelBackgroundColor=default;labelBorderColor=none;strokeColor=#000000;strokeWidth=5;fontSize=40;arcSize=10;fillOpacity=50;" edge="1" parent="1">
          <mxGeometry width="100" relative="1" as="geometry">
            <mxPoint x="4310" y="3350" as="sourcePoint" />
            <mxPoint x="4040" y="3780" as="targetPoint" />
          </mxGeometry>
        </mxCell>
        <mxCell id="hqqRMv9_qPCl2O-zhf3N-66" value="" style="shape=link;html=1;rounded=0;labelBackgroundColor=default;labelBorderColor=none;strokeColor=#000000;strokeWidth=5;fontSize=40;arcSize=10;fillOpacity=50;" edge="1" parent="1">
          <mxGeometry width="100" relative="1" as="geometry">
            <mxPoint x="5330" y="3030" as="sourcePoint" />
            <mxPoint x="4380" y="3030" as="targetPoint" />
          </mxGeometry>
        </mxCell>
        <mxCell id="hqqRMv9_qPCl2O-zhf3N-67" value="" style="shape=link;html=1;rounded=0;labelBackgroundColor=default;labelBorderColor=none;strokeColor=#000000;strokeWidth=5;fontSize=40;arcSize=10;fillOpacity=50;" edge="1" parent="1">
          <mxGeometry width="100" relative="1" as="geometry">
            <mxPoint x="5420" y="3810" as="sourcePoint" />
            <mxPoint x="5340" y="3030" as="targetPoint" />
          </mxGeometry>
        </mxCell>
        <mxCell id="hqqRMv9_qPCl2O-zhf3N-68" value="" style="shape=link;html=1;rounded=0;labelBackgroundColor=default;labelBorderColor=none;strokeColor=#000000;strokeWidth=5;fontSize=40;arcSize=10;fillOpacity=50;" edge="1" parent="1">
          <mxGeometry width="100" relative="1" as="geometry">
            <mxPoint x="3650" y="3150" as="sourcePoint" />
            <mxPoint x="4390" y="3030" as="targetPoint" />
          </mxGeometry>
        </mxCell>
        <mxCell id="hqqRMv9_qPCl2O-zhf3N-69" value="" style="shape=link;html=1;rounded=0;labelBackgroundColor=default;labelBorderColor=none;strokeColor=#000000;strokeWidth=5;fontSize=40;arcSize=10;fillOpacity=50;" edge="1" parent="1">
          <mxGeometry width="100" relative="1" as="geometry">
            <mxPoint x="3530" y="3560" as="sourcePoint" />
            <mxPoint x="3650" y="3150" as="targetPoint" />
          </mxGeometry>
        </mxCell>
        <mxCell id="hqqRMv9_qPCl2O-zhf3N-70" value="" style="shape=link;html=1;rounded=0;labelBackgroundColor=default;labelBorderColor=none;strokeColor=#000000;strokeWidth=5;fontSize=40;arcSize=10;fillOpacity=50;" edge="1" parent="1">
          <mxGeometry width="100" relative="1" as="geometry">
            <mxPoint x="4120" y="3640" as="sourcePoint" />
            <mxPoint x="3520" y="3550" as="targetPoint" />
          </mxGeometry>
        </mxCell>
        <mxCell id="hqqRMv9_qPCl2O-zhf3N-71" value="" style="shape=link;html=1;rounded=0;labelBackgroundColor=default;labelBorderColor=none;strokeColor=#000000;strokeWidth=5;fontSize=40;arcSize=10;fillOpacity=50;" edge="1" parent="1">
          <mxGeometry width="100" relative="1" as="geometry">
            <mxPoint x="3440" y="3810" as="sourcePoint" />
            <mxPoint x="3520" y="3550" as="targetPoint" />
          </mxGeometry>
        </mxCell>
        <mxCell id="hqqRMv9_qPCl2O-zhf3N-72" value="" style="shape=link;html=1;rounded=0;labelBackgroundColor=default;labelBorderColor=none;strokeColor=#000000;strokeWidth=5;fontSize=40;arcSize=10;fillOpacity=50;" edge="1" parent="1">
          <mxGeometry width="100" relative="1" as="geometry">
            <mxPoint x="4090" y="3860" as="sourcePoint" />
            <mxPoint x="3440" y="3810" as="targetPoint" />
          </mxGeometry>
        </mxCell>
        <mxCell id="hqqRMv9_qPCl2O-zhf3N-73" value="" style="shape=link;html=1;rounded=0;labelBackgroundColor=default;labelBorderColor=none;strokeColor=#000000;strokeWidth=5;fontSize=40;arcSize=10;fillOpacity=50;" edge="1" parent="1">
          <mxGeometry width="100" relative="1" as="geometry">
            <mxPoint x="3290" y="4370" as="sourcePoint" />
            <mxPoint x="3440" y="3810" as="targetPoint" />
          </mxGeometry>
        </mxCell>
        <mxCell id="hqqRMv9_qPCl2O-zhf3N-74" value="" style="shape=link;html=1;rounded=0;labelBackgroundColor=default;labelBorderColor=none;strokeColor=#000000;strokeWidth=5;fontSize=40;arcSize=10;fillOpacity=50;" edge="1" parent="1">
          <mxGeometry width="100" relative="1" as="geometry">
            <mxPoint x="3550" y="4800" as="sourcePoint" />
            <mxPoint x="3290" y="4370" as="targetPoint" />
          </mxGeometry>
        </mxCell>
        <mxCell id="hqqRMv9_qPCl2O-zhf3N-75" value="" style="shape=link;html=1;rounded=0;labelBackgroundColor=default;labelBorderColor=none;strokeColor=#000000;strokeWidth=5;fontSize=40;arcSize=10;fillOpacity=50;" edge="1" parent="1">
          <mxGeometry width="100" relative="1" as="geometry">
            <mxPoint x="4120" y="4750" as="sourcePoint" />
            <mxPoint x="4130" y="4920" as="targetPoint" />
          </mxGeometry>
        </mxCell>
        <mxCell id="hqqRMv9_qPCl2O-zhf3N-76" value="" style="shape=link;html=1;rounded=0;labelBackgroundColor=default;labelBorderColor=none;strokeColor=#000000;strokeWidth=5;fontSize=40;arcSize=10;fillOpacity=50;" edge="1" parent="1">
          <mxGeometry width="100" relative="1" as="geometry">
            <mxPoint x="4180" y="4580" as="sourcePoint" />
            <mxPoint x="4100" y="4650" as="targetPoint" />
          </mxGeometry>
        </mxCell>
        <mxCell id="hqqRMv9_qPCl2O-zhf3N-77" value="" style="shape=link;html=1;rounded=0;labelBackgroundColor=default;labelBorderColor=none;strokeColor=#000000;strokeWidth=5;fontSize=40;arcSize=10;fillOpacity=50;" edge="1" parent="1">
          <mxGeometry width="100" relative="1" as="geometry">
            <mxPoint x="4480" y="4730" as="sourcePoint" />
            <mxPoint x="4480" y="4660" as="targetPoint" />
          </mxGeometry>
        </mxCell>
        <mxCell id="hqqRMv9_qPCl2O-zhf3N-78" value="" style="shape=link;html=1;rounded=0;labelBackgroundColor=default;labelBorderColor=none;strokeColor=#000000;strokeWidth=5;fontSize=40;arcSize=10;fillOpacity=50;" edge="1" parent="1">
          <mxGeometry width="100" relative="1" as="geometry">
            <mxPoint x="4110" y="4760" as="sourcePoint" />
            <mxPoint x="4480" y="4730" as="targetPoint" />
          </mxGeometry>
        </mxCell>
        <mxCell id="hqqRMv9_qPCl2O-zhf3N-79" value="" style="shape=link;html=1;rounded=0;labelBackgroundColor=default;labelBorderColor=none;strokeColor=#000000;strokeWidth=5;fontSize=40;arcSize=10;fillOpacity=50;" edge="1" parent="1">
          <mxGeometry width="100" relative="1" as="geometry">
            <mxPoint x="5470" y="4320" as="sourcePoint" />
            <mxPoint x="5030" y="4020" as="targetPoint" />
          </mxGeometry>
        </mxCell>
        <mxCell id="hqqRMv9_qPCl2O-zhf3N-80" value="" style="shape=link;html=1;rounded=0;labelBackgroundColor=default;labelBorderColor=none;strokeColor=#000000;strokeWidth=5;fontSize=40;arcSize=10;fillOpacity=50;" edge="1" parent="1">
          <mxGeometry width="100" relative="1" as="geometry">
            <mxPoint x="6060" y="3880" as="sourcePoint" />
            <mxPoint x="5430" y="3810" as="targetPoint" />
          </mxGeometry>
        </mxCell>
        <mxCell id="hqqRMv9_qPCl2O-zhf3N-81" value="" style="shape=link;html=1;rounded=0;labelBackgroundColor=default;labelBorderColor=none;strokeColor=#000000;strokeWidth=5;fontSize=40;arcSize=10;fillOpacity=50;" edge="1" parent="1">
          <mxGeometry width="100" relative="1" as="geometry">
            <mxPoint x="5460" y="4320" as="sourcePoint" />
            <mxPoint x="5970" y="4230" as="targetPoint" />
          </mxGeometry>
        </mxCell>
        <mxCell id="hqqRMv9_qPCl2O-zhf3N-82" value="" style="shape=link;html=1;rounded=0;labelBackgroundColor=default;labelBorderColor=none;strokeColor=#000000;strokeWidth=5;fontSize=40;arcSize=10;fillOpacity=50;" edge="1" parent="1">
          <mxGeometry width="100" relative="1" as="geometry">
            <mxPoint x="6060" y="3870" as="sourcePoint" />
            <mxPoint x="5950" y="4240" as="targetPoint" />
          </mxGeometry>
        </mxCell>
        <mxCell id="hqqRMv9_qPCl2O-zhf3N-83" value="" style="shape=link;html=1;rounded=0;labelBackgroundColor=default;labelBorderColor=none;strokeColor=#000000;strokeWidth=5;fontSize=40;arcSize=10;fillOpacity=50;" edge="1" parent="1">
          <mxGeometry width="100" relative="1" as="geometry">
            <mxPoint x="4130" y="4920" as="sourcePoint" />
            <mxPoint x="4320" y="4980" as="targetPoint" />
          </mxGeometry>
        </mxCell>
        <mxCell id="hqqRMv9_qPCl2O-zhf3N-84" value="" style="shape=link;html=1;rounded=0;labelBackgroundColor=default;labelBorderColor=none;strokeColor=#000000;strokeWidth=5;fontSize=40;arcSize=10;fillOpacity=50;" edge="1" parent="1">
          <mxGeometry width="100" relative="1" as="geometry">
            <mxPoint x="4470" y="4730" as="sourcePoint" />
            <mxPoint x="5110" y="4730" as="targetPoint" />
          </mxGeometry>
        </mxCell>
        <mxCell id="hqqRMv9_qPCl2O-zhf3N-85" value="" style="shape=link;html=1;rounded=0;labelBackgroundColor=default;labelBorderColor=none;strokeColor=#000000;strokeWidth=5;fontSize=40;arcSize=10;fillOpacity=50;" edge="1" parent="1">
          <mxGeometry width="100" relative="1" as="geometry">
            <mxPoint x="4810" y="4990" as="sourcePoint" />
            <mxPoint x="5100" y="4740" as="targetPoint" />
          </mxGeometry>
        </mxCell>
        <mxCell id="hqqRMv9_qPCl2O-zhf3N-86" value="" style="shape=link;html=1;rounded=0;labelBackgroundColor=default;labelBorderColor=none;strokeColor=#000000;strokeWidth=5;fontSize=40;arcSize=10;fillOpacity=50;" edge="1" parent="1">
          <mxGeometry width="100" relative="1" as="geometry">
            <mxPoint x="4690" y="5530" as="sourcePoint" />
            <mxPoint x="4820" y="4990" as="targetPoint" />
          </mxGeometry>
        </mxCell>
        <mxCell id="hqqRMv9_qPCl2O-zhf3N-87" value="" style="shape=link;html=1;rounded=0;labelBackgroundColor=default;labelBorderColor=none;strokeColor=#000000;strokeWidth=5;fontSize=40;arcSize=10;fillOpacity=50;" edge="1" parent="1">
          <mxGeometry width="100" relative="1" as="geometry">
            <mxPoint x="4400" y="5520" as="sourcePoint" />
            <mxPoint x="4680" y="5520" as="targetPoint" />
          </mxGeometry>
        </mxCell>
        <mxCell id="hqqRMv9_qPCl2O-zhf3N-88" value="" style="shape=link;html=1;rounded=0;labelBackgroundColor=default;labelBorderColor=none;strokeColor=#000000;strokeWidth=5;fontSize=40;arcSize=10;fillOpacity=50;" edge="1" parent="1">
          <mxGeometry width="100" relative="1" as="geometry">
            <mxPoint x="4310" y="4970" as="sourcePoint" />
            <mxPoint x="4400" y="5520" as="targetPoint" />
          </mxGeometry>
        </mxCell>
        <mxCell id="hqqRMv9_qPCl2O-zhf3N-89" value="" style="shape=link;html=1;rounded=0;labelBackgroundColor=default;labelBorderColor=none;strokeColor=#000000;strokeWidth=5;fontSize=40;arcSize=10;fillOpacity=50;" edge="1" parent="1">
          <mxGeometry width="100" relative="1" as="geometry">
            <mxPoint x="3550" y="4800" as="sourcePoint" />
            <mxPoint x="4130" y="4920" as="targetPoint" />
          </mxGeometry>
        </mxCell>
        <mxCell id="hqqRMv9_qPCl2O-zhf3N-90" value="" style="shape=link;html=1;rounded=0;labelBackgroundColor=default;labelBorderColor=none;strokeColor=#000000;strokeWidth=5;fontSize=40;arcSize=10;fillOpacity=50;" edge="1" parent="1">
          <mxGeometry width="100" relative="1" as="geometry">
            <mxPoint x="3950" y="5090" as="sourcePoint" />
            <mxPoint x="3970" y="4890" as="targetPoint" />
          </mxGeometry>
        </mxCell>
        <mxCell id="hqqRMv9_qPCl2O-zhf3N-91" value="" style="endArrow=none;html=1;rounded=0;labelBackgroundColor=default;labelBorderColor=none;strokeColor=#000000;strokeWidth=5;fontSize=40;shape=link;arcSize=10;fillOpacity=50;" edge="1" parent="1">
          <mxGeometry width="50" height="50" relative="1" as="geometry">
            <mxPoint x="3580" y="5470" as="sourcePoint" />
            <mxPoint x="3950" y="5090" as="targetPoint" />
          </mxGeometry>
        </mxCell>
        <mxCell id="hqqRMv9_qPCl2O-zhf3N-92" value="" style="shape=link;html=1;rounded=0;labelBackgroundColor=default;labelBorderColor=none;strokeColor=#000000;strokeWidth=5;fontSize=40;arcSize=10;fillOpacity=50;" edge="1" parent="1">
          <mxGeometry width="100" relative="1" as="geometry">
            <mxPoint x="2980" y="5460" as="sourcePoint" />
            <mxPoint x="3580" y="5460" as="targetPoint" />
          </mxGeometry>
        </mxCell>
        <mxCell id="hqqRMv9_qPCl2O-zhf3N-93" value="" style="shape=link;html=1;rounded=0;labelBackgroundColor=default;labelBorderColor=none;strokeColor=#000000;strokeWidth=5;fontSize=40;arcSize=10;fillOpacity=50;" edge="1" parent="1">
          <mxGeometry width="100" relative="1" as="geometry">
            <mxPoint x="2980" y="5460" as="sourcePoint" />
            <mxPoint x="2990" y="4980" as="targetPoint" />
          </mxGeometry>
        </mxCell>
        <mxCell id="hqqRMv9_qPCl2O-zhf3N-94" value="" style="shape=link;html=1;rounded=0;labelBackgroundColor=default;labelBorderColor=none;strokeColor=#000000;strokeWidth=5;fontSize=40;arcSize=10;fillOpacity=50;" edge="1" parent="1">
          <mxGeometry width="100" relative="1" as="geometry">
            <mxPoint x="3000" y="4990" as="sourcePoint" />
            <mxPoint x="3560" y="4810" as="targetPoint" />
          </mxGeometry>
        </mxCell>
        <mxCell id="hqqRMv9_qPCl2O-zhf3N-95" value="" style="shape=link;html=1;rounded=0;labelBackgroundColor=default;labelBorderColor=none;strokeColor=#000000;strokeWidth=5;fontSize=40;arcSize=10;fillOpacity=50;" edge="1" parent="1">
          <mxGeometry width="100" relative="1" as="geometry">
            <mxPoint x="5350" y="4230" as="sourcePoint" />
            <mxPoint x="5050" y="4610" as="targetPoint" />
          </mxGeometry>
        </mxCell>
        <mxCell id="hqqRMv9_qPCl2O-zhf3N-96" value="" style="shape=link;html=1;rounded=0;labelBackgroundColor=default;labelBorderColor=none;strokeColor=#000000;strokeWidth=5;fontSize=40;arcSize=10;fillOpacity=50;" edge="1" parent="1">
          <mxGeometry width="100" relative="1" as="geometry">
            <mxPoint x="5020" y="4010" as="sourcePoint" />
            <mxPoint x="5420" y="3800" as="targetPoint" />
          </mxGeometry>
        </mxCell>
        <mxCell id="hqqRMv9_qPCl2O-zhf3N-97" value="&lt;b&gt;&lt;font style=&quot;font-size: 50px;&quot;&gt;Germany&lt;/font&gt;&lt;/b&gt;" style="text;html=1;strokeColor=none;fillColor=none;align=center;verticalAlign=middle;whiteSpace=wrap;rounded=0;fontSize=40;arcSize=10;fillOpacity=50;" vertex="1" parent="1">
          <mxGeometry x="4710" y="4160" width="60" height="30" as="geometry" />
        </mxCell>
        <mxCell id="hqqRMv9_qPCl2O-zhf3N-98" value="&lt;b&gt;Spain&lt;/b&gt;" style="text;html=1;strokeColor=none;fillColor=none;align=center;verticalAlign=middle;whiteSpace=wrap;rounded=0;fontSize=50;arcSize=10;fillOpacity=50;" vertex="1" parent="1">
          <mxGeometry x="3290" y="5290" width="60" height="30" as="geometry" />
        </mxCell>
        <mxCell id="hqqRMv9_qPCl2O-zhf3N-99" value="&lt;b&gt;France&lt;/b&gt;" style="text;html=1;strokeColor=none;fillColor=none;align=center;verticalAlign=middle;whiteSpace=wrap;rounded=0;fontSize=50;arcSize=10;fillOpacity=50;" vertex="1" parent="1">
          <mxGeometry x="3780" y="4300" width="60" height="30" as="geometry" />
        </mxCell>
        <mxCell id="hqqRMv9_qPCl2O-zhf3N-100" value="&lt;b&gt;Italy&lt;/b&gt;" style="text;html=1;strokeColor=none;fillColor=none;align=center;verticalAlign=middle;whiteSpace=wrap;rounded=0;fontSize=50;arcSize=10;fillOpacity=50;" vertex="1" parent="1">
          <mxGeometry x="4670" y="4985" width="60" height="30" as="geometry" />
        </mxCell>
        <mxCell id="hqqRMv9_qPCl2O-zhf3N-101" value="&lt;b&gt;Czech Republic&lt;/b&gt;" style="text;html=1;strokeColor=none;fillColor=none;align=center;verticalAlign=middle;whiteSpace=wrap;rounded=0;fontSize=50;arcSize=10;fillOpacity=50;" vertex="1" parent="1">
          <mxGeometry x="5590" y="4140" width="60" height="30" as="geometry" />
        </mxCell>
        <mxCell id="hqqRMv9_qPCl2O-zhf3N-102" value="&lt;b&gt;Belgium&lt;/b&gt;" style="text;html=1;strokeColor=none;fillColor=none;align=center;verticalAlign=middle;whiteSpace=wrap;rounded=0;fontSize=50;arcSize=10;fillOpacity=50;" vertex="1" parent="1">
          <mxGeometry x="3560" y="3740" width="60" height="30" as="geometry" />
        </mxCell>
        <mxCell id="hqqRMv9_qPCl2O-zhf3N-103" value="&lt;b&gt;Netherlands&lt;/b&gt;" style="text;html=1;strokeColor=none;fillColor=none;align=center;verticalAlign=middle;whiteSpace=wrap;rounded=0;fontSize=50;arcSize=10;fillOpacity=50;" vertex="1" parent="1">
          <mxGeometry x="4040" y="3360" width="60" height="30" as="geometry" />
        </mxCell>
        <mxCell id="hqqRMv9_qPCl2O-zhf3N-104" value="" style="shape=link;html=1;rounded=0;labelBackgroundColor=default;labelBorderColor=none;strokeColor=#000000;strokeWidth=5;fontSize=50;arcSize=10;fillOpacity=50;" edge="1" parent="1">
          <mxGeometry width="100" relative="1" as="geometry">
            <mxPoint x="4310" y="3360" as="sourcePoint" />
            <mxPoint x="4380" y="3040" as="targetPoint" />
          </mxGeometry>
        </mxCell>
        <mxCell id="hqqRMv9_qPCl2O-zhf3N-105" value="" style="edgeStyle=none;orthogonalLoop=1;jettySize=auto;html=1;rounded=0;labelBackgroundColor=default;labelBorderColor=none;strokeColor=#000000;strokeWidth=5;fontSize=50;shape=link;" edge="1" parent="1">
          <mxGeometry width="80" relative="1" as="geometry">
            <mxPoint x="4120" y="4760" as="sourcePoint" />
            <mxPoint x="4100" y="4650" as="targetPoint" />
            <Array as="points" />
          </mxGeometry>
        </mxCell>
        <mxCell id="hqqRMv9_qPCl2O-zhf3N-106" value="Leipzig" style="whiteSpace=wrap;html=1;fontSize=32;rounded=0;arcSize=10;" vertex="1" parent="1">
          <mxGeometry x="4910" y="3770" width="120" height="60" as="geometry" />
        </mxCell>
        <mxCell id="hqqRMv9_qPCl2O-zhf3N-107" value="" style="edgeStyle=none;shape=link;rounded=0;orthogonalLoop=1;jettySize=auto;html=1;arcSize=10;fillOpacity=50;exitX=1;exitY=0.5;exitDx=0;exitDy=0;entryX=0;entryY=0.5;entryDx=0;entryDy=0;" edge="1" parent="1" source="hqqRMv9_qPCl2O-zhf3N-15" target="hqqRMv9_qPCl2O-zhf3N-106">
          <mxGeometry relative="1" as="geometry">
            <mxPoint x="4870" y="4000" as="sourcePoint" />
            <mxPoint x="5030" y="3970" as="targetPoint" />
          </mxGeometry>
        </mxCell>
        <mxCell id="hqqRMv9_qPCl2O-zhf3N-108" style="edgeStyle=none;shape=link;rounded=0;orthogonalLoop=1;jettySize=auto;html=1;exitX=0.25;exitY=1;exitDx=0;exitDy=0;labelBackgroundColor=default;labelBorderColor=none;strokeColor=#000000;strokeWidth=5;fontSize=50;" edge="1" parent="1" source="hqqRMv9_qPCl2O-zhf3N-106" target="hqqRMv9_qPCl2O-zhf3N-106">
          <mxGeometry relative="1" as="geometry" />
        </mxCell>
        <mxCell id="hqqRMv9_qPCl2O-zhf3N-109" value="" style="edgeStyle=none;shape=link;rounded=0;orthogonalLoop=1;jettySize=auto;html=1;arcSize=10;fillOpacity=50;entryX=1;entryY=0.5;entryDx=0;entryDy=0;exitX=0;exitY=0.5;exitDx=0;exitDy=0;" edge="1" parent="1" source="hqqRMv9_qPCl2O-zhf3N-22" target="hqqRMv9_qPCl2O-zhf3N-106">
          <mxGeometry relative="1" as="geometry">
            <mxPoint x="4590" y="3850" as="sourcePoint" />
            <mxPoint x="4750" y="3820" as="targetPoint" />
          </mxGeometry>
        </mxCell>
        <mxCell id="hqqRMv9_qPCl2O-zhf3N-110" value="" style="edgeStyle=none;shape=link;rounded=0;orthogonalLoop=1;jettySize=auto;html=1;arcSize=10;fillOpacity=50;entryX=0.25;entryY=1;entryDx=0;entryDy=0;exitX=0.5;exitY=0;exitDx=0;exitDy=0;" edge="1" parent="1" source="hqqRMv9_qPCl2O-zhf3N-106" target="hqqRMv9_qPCl2O-zhf3N-20">
          <mxGeometry relative="1" as="geometry">
            <mxPoint x="4580" y="3837.2222222222217" as="sourcePoint" />
            <mxPoint x="4690" y="3812.7777777777774" as="targetPoint" />
          </mxGeometry>
        </mxCell>
        <mxCell id="hqqRMv9_qPCl2O-zhf3N-111" value="&lt;font style=&quot;font-size: 32px;&quot;&gt;Munchen Hbf&lt;/font&gt;" style="rounded=0;whiteSpace=wrap;html=1;fontSize=50;" vertex="1" parent="1">
          <mxGeometry x="4790" y="4390" width="210" height="70" as="geometry" />
        </mxCell>
        <mxCell id="hqqRMv9_qPCl2O-zhf3N-112" value="" style="edgeStyle=none;shape=link;rounded=0;orthogonalLoop=1;jettySize=auto;html=1;arcSize=10;fillOpacity=50;exitX=0.5;exitY=1;exitDx=0;exitDy=0;entryX=0.5;entryY=0;entryDx=0;entryDy=0;" edge="1" parent="1" source="hqqRMv9_qPCl2O-zhf3N-106" target="hqqRMv9_qPCl2O-zhf3N-111">
          <mxGeometry relative="1" as="geometry">
            <mxPoint x="4969.000000000001" y="3880" as="sourcePoint" />
            <mxPoint x="4921" y="4160" as="targetPoint" />
          </mxGeometry>
        </mxCell>
        <mxCell id="hqqRMv9_qPCl2O-zhf3N-113" value="&lt;font style=&quot;font-size: 32px;&quot;&gt;Verona&lt;/font&gt;" style="rounded=0;whiteSpace=wrap;html=1;fontSize=50;" vertex="1" parent="1">
          <mxGeometry x="4650" y="4810" width="210" height="70" as="geometry" />
        </mxCell>
        <mxCell id="hqqRMv9_qPCl2O-zhf3N-114" value="" style="edgeStyle=none;shape=link;rounded=0;orthogonalLoop=1;jettySize=auto;html=1;arcSize=10;fillOpacity=50;entryX=0.5;entryY=0;entryDx=0;entryDy=0;exitX=0.5;exitY=1;exitDx=0;exitDy=0;" edge="1" parent="1" source="hqqRMv9_qPCl2O-zhf3N-111" target="hqqRMv9_qPCl2O-zhf3N-113">
          <mxGeometry relative="1" as="geometry">
            <mxPoint x="4373.999999999999" y="4250" as="sourcePoint" />
            <mxPoint x="4326.000000000001" y="4530" as="targetPoint" />
          </mxGeometry>
        </mxCell>
        <mxCell id="hqqRMv9_qPCl2O-zhf3N-115" value="" style="edgeStyle=none;shape=link;rounded=0;orthogonalLoop=1;jettySize=auto;html=1;arcSize=10;fillOpacity=50;entryX=1;entryY=0.5;entryDx=0;entryDy=0;exitX=0;exitY=0.5;exitDx=0;exitDy=0;" edge="1" parent="1" source="hqqRMv9_qPCl2O-zhf3N-113" target="hqqRMv9_qPCl2O-zhf3N-42">
          <mxGeometry relative="1" as="geometry">
            <mxPoint x="4373.999999999999" y="4250" as="sourcePoint" />
            <mxPoint x="4326.000000000001" y="4530" as="targetPoint" />
          </mxGeometry>
        </mxCell>
        <mxCell id="hqqRMv9_qPCl2O-zhf3N-116" value="Domodossola" style="rounded=0;whiteSpace=wrap;html=1;fontSize=32;" vertex="1" parent="1">
          <mxGeometry x="4260" y="4790" width="220" height="60" as="geometry" />
        </mxCell>
        <mxCell id="hqqRMv9_qPCl2O-zhf3N-117" value="" style="edgeStyle=none;shape=link;rounded=0;orthogonalLoop=1;jettySize=auto;html=1;arcSize=10;fillOpacity=50;entryX=0.5;entryY=0;entryDx=0;entryDy=0;exitX=0.5;exitY=1;exitDx=0;exitDy=0;" edge="1" parent="1" source="hqqRMv9_qPCl2O-zhf3N-116" target="hqqRMv9_qPCl2O-zhf3N-42">
          <mxGeometry relative="1" as="geometry">
            <mxPoint x="4660.000000000001" y="4855" as="sourcePoint" />
            <mxPoint x="4570.000000000001" y="4935" as="targetPoint" />
          </mxGeometry>
        </mxCell>
        <mxCell id="hqqRMv9_qPCl2O-zhf3N-118" value="" style="edgeStyle=none;shape=link;rounded=0;orthogonalLoop=1;jettySize=auto;html=1;arcSize=10;fillOpacity=50;entryX=0.25;entryY=0;entryDx=0;entryDy=0;exitX=0.5;exitY=1;exitDx=0;exitDy=0;" edge="1" parent="1" source="hqqRMv9_qPCl2O-zhf3N-46" target="hqqRMv9_qPCl2O-zhf3N-116">
          <mxGeometry relative="1" as="geometry">
            <mxPoint x="4670.000000000001" y="4865" as="sourcePoint" />
            <mxPoint x="4580.000000000001" y="4945" as="targetPoint" />
          </mxGeometry>
        </mxCell>
        <mxCell id="hqqRMv9_qPCl2O-zhf3N-119" value="" style="edgeStyle=none;shape=link;rounded=0;orthogonalLoop=1;jettySize=auto;html=1;arcSize=10;fillOpacity=50;entryX=0.75;entryY=0;entryDx=0;entryDy=0;exitX=0.5;exitY=1;exitDx=0;exitDy=0;fillColor=#e51400;strokeWidth=2;strokeColor=#B20000;" edge="1" parent="1" source="hqqRMv9_qPCl2O-zhf3N-23" target="hqqRMv9_qPCl2O-zhf3N-111">
          <mxGeometry relative="1" as="geometry">
            <mxPoint x="4905" y="4470" as="sourcePoint" />
            <mxPoint x="4765" y="4820" as="targetPoint" />
          </mxGeometry>
        </mxCell>
        <mxCell id="hqqRMv9_qPCl2O-zhf3N-120" value="" style="edgeStyle=none;shape=link;rounded=0;orthogonalLoop=1;jettySize=auto;html=1;arcSize=10;fillOpacity=50;entryX=1;entryY=0.5;entryDx=0;entryDy=0;exitX=0;exitY=0.5;exitDx=0;exitDy=0;" edge="1" parent="1" source="hqqRMv9_qPCl2O-zhf3N-111" target="hqqRMv9_qPCl2O-zhf3N-40">
          <mxGeometry relative="1" as="geometry">
            <mxPoint x="4660" y="4855" as="sourcePoint" />
            <mxPoint x="4570" y="4950" as="targetPoint" />
          </mxGeometry>
        </mxCell>
      </root>
    </mxGraphModel>
  </diagram>
</mxfile>
